<?xml version="1.0" encoding="UTF-8"?> <svg xmlns="http://www.w3.org/2000/svg" width="656" height="288" viewBox="0 0 656 288" fill="none"><path d="M485.473 200.702H505.373V78.2037H485.473V200.702Z" fill="currentColor"></path><path d="M485.473 36V56H505.373V36H485.473Z" fill="currentColor"></path><path fill-rule="evenodd" clip-rule="evenodd" d="M407.699 75.6124C369.356 75.6124 348 104.117 348 138.982C348 182.327 372.025 204 415.465 204C428.813 204 448.227 200.231 461.332 189.159V173.847H456.721C444.101 182.563 428.085 187.039 415.222 187.039C392.896 187.039 378.82 178.087 371.297 161.832C368.871 156.414 367.9 150.054 367.9 142.751V140.631H467.399C466.185 104.117 450.411 75.6124 407.699 75.6124ZM445.8 126.025H369.113C372.753 104.117 384.645 91.6314 407.942 91.6314C430.511 91.6314 444.587 106.001 445.8 126.025Z" fill="currentColor"></path><path d="M526.443 189.866V171.255H532.995C539.79 180.443 557.991 189.159 573.765 189.159C594.15 189.159 604.586 182.327 604.586 169.842C604.586 158.552 589.572 153.82 572.747 148.517C551.308 141.76 526.928 134.076 526.928 110.713C526.928 89.9824 543.187 76.0836 577.163 76.0836C596.334 76.0836 610.167 81.9729 617.448 85.9777V105.53H611.623C607.012 100.348 595.364 90.4536 577.163 90.4536C556.049 90.4536 546.342 97.7563 546.342 108.122C546.342 121.522 562.171 126.28 579.536 131.5C600.634 137.841 624 144.865 624 168.9C624 190.572 609.196 204 573.522 204C554.836 204 538.334 197.64 526.443 189.866Z" fill="currentColor"></path><path fill-rule="evenodd" clip-rule="evenodd" d="M356.293 226.639C350.967 226.639 348 230.718 348 235.707C348 241.91 351.337 245.011 357.372 245.011C359.226 245.011 361.923 244.472 363.743 242.887V240.696H363.102C361.349 241.943 359.125 242.584 357.338 242.584C354.236 242.584 352.281 241.303 351.236 238.977C350.899 238.201 350.764 237.291 350.764 236.246V235.943H364.586C364.417 230.718 362.226 226.639 356.293 226.639ZM361.585 233.853H350.933C351.438 230.718 353.09 228.931 356.327 228.931C359.462 228.931 361.417 230.987 361.585 233.853Z" fill="currentColor"></path><path d="M368.139 244.539V227.009H370.735V230.077H371.207C372.285 227.65 374.713 226.74 377.039 226.74C381.016 226.74 383.781 228.695 383.781 233.347V244.539H381.05V233.583C381.05 230.684 378.96 229.167 376.095 229.167C374.038 229.167 370.87 230.819 370.87 233.414V244.539H368.139Z" fill="currentColor"></path><path d="M385.939 227.009V229.234H388.704L388.67 239.449C388.67 243.426 390.018 244.539 393.019 244.539H395.277V242.415H393.524C392.209 242.415 391.299 241.977 391.299 239.685L391.367 229.234H395.581V227.009H391.4L391.434 220.975H388.737L388.704 227.009H385.939Z" fill="currentColor"></path><path fill-rule="evenodd" clip-rule="evenodd" d="M397.875 235.707C397.875 230.718 400.841 226.639 406.168 226.639C412.101 226.639 414.292 230.718 414.46 235.943H400.639V236.246C400.639 237.291 400.774 238.201 401.111 238.977C402.156 241.303 404.111 242.584 407.213 242.584C408.999 242.584 411.224 241.943 412.977 240.696H413.618V242.887C411.797 244.472 409.1 245.011 407.246 245.011C401.212 245.011 397.875 241.91 397.875 235.707ZM400.808 233.853H411.46C411.292 230.987 409.336 228.931 406.201 228.931C402.965 228.931 401.313 230.718 400.808 233.853Z" fill="currentColor"></path><path d="M425.194 229.302H427.621V226.875H425.194C423.171 226.875 421.857 227.953 421.385 230.077H420.913V227.009H418.081V244.539H421.014V234.358C421.216 231.425 423.104 229.302 425.194 229.302Z" fill="currentColor"></path><path fill-rule="evenodd" clip-rule="evenodd" d="M430.656 251.955V227.009H433.488V229.099H433.825C434.735 227.65 436.758 226.639 439.084 226.639C444.309 226.639 447.68 230.145 447.68 235.437C447.68 241.134 443.769 244.809 438.983 244.809C437.061 244.809 434.6 243.898 433.892 242.044H433.454V251.955H430.656ZM433.454 238.707C433.454 241.033 435.915 242.449 438.511 242.449C441.848 242.449 444.814 240.19 444.814 235.572C444.814 231.392 442.084 228.998 438.679 228.998C436.05 228.998 433.454 231.088 433.454 233.954V238.707Z" fill="currentColor"></path><path d="M458.477 229.302H460.904V226.875H458.477C456.454 226.875 455.139 227.953 454.667 230.077H454.195V227.009H451.364V244.539H454.297V234.358C454.499 231.425 456.387 229.302 458.477 229.302Z" fill="currentColor"></path><path d="M466.636 244.539H463.871V227.009H466.636V244.539Z" fill="currentColor"></path><path d="M463.871 222.728V219.121H466.636V222.728H463.871Z" fill="currentColor"></path><path d="M470.571 240.325V242.988C472.223 244.101 474.515 245.011 477.111 245.011C482.067 245.011 484.123 243.089 484.123 239.988C484.123 236.549 480.877 235.544 477.947 234.636C475.534 233.889 473.336 233.208 473.336 231.291C473.336 229.807 474.684 228.762 477.617 228.762C480.145 228.762 481.763 230.178 482.404 230.92H483.213V228.122C482.201 227.549 480.28 226.706 477.617 226.706C472.897 226.706 470.639 228.695 470.639 231.661C470.639 235.005 474.025 236.104 477.003 237.071C479.341 237.83 481.426 238.507 481.426 240.123C481.426 241.91 479.977 242.887 477.145 242.887C474.954 242.887 472.425 241.64 471.481 240.325H470.571Z" fill="currentColor"></path><path fill-rule="evenodd" clip-rule="evenodd" d="M494.658 226.639C500.591 226.639 502.782 230.718 502.951 235.943H489.13V236.246C489.13 237.291 489.264 238.201 489.602 238.977C490.647 241.303 492.602 242.584 495.703 242.584C497.49 242.584 499.715 241.943 501.468 240.696H502.108V242.887C500.288 244.472 497.591 245.011 495.737 245.011C489.703 245.011 486.365 241.91 486.365 235.707C486.365 230.718 489.332 226.639 494.658 226.639ZM489.298 233.853H499.951C499.782 230.987 497.827 228.931 494.692 228.931C491.456 228.931 489.804 230.718 489.298 233.853Z" fill="currentColor"></path><path fill-rule="evenodd" clip-rule="evenodd" d="M530.802 235.943C530.633 230.718 528.442 226.639 522.509 226.639C517.183 226.639 514.216 230.718 514.216 235.707C514.216 241.91 517.553 245.011 523.588 245.011C525.442 245.011 528.139 244.472 529.959 242.887V240.696H529.318C527.566 241.943 525.341 242.584 523.554 242.584C520.453 242.584 518.497 241.303 517.452 238.977C517.115 238.201 516.98 237.291 516.98 236.246V235.943H530.802ZM527.801 233.853H517.149C517.655 230.718 519.306 228.931 522.543 228.931C525.678 228.931 527.633 230.987 527.801 233.853Z" fill="currentColor"></path><path d="M533.647 242.988V240.325H534.557C535.501 241.64 538.03 242.887 540.221 242.887C543.052 242.887 544.502 241.91 544.502 240.123C544.502 238.507 542.416 237.83 540.079 237.071C537.101 236.104 533.715 235.005 533.715 231.661C533.715 228.695 535.973 226.706 540.693 226.706C543.356 226.706 545.277 227.549 546.289 228.122V230.92H545.48C544.839 230.178 543.221 228.762 540.693 228.762C537.76 228.762 536.411 229.807 536.411 231.291C536.411 233.208 538.61 233.889 541.022 234.636C543.953 235.544 547.199 236.549 547.199 239.988C547.199 243.089 545.142 245.011 540.187 245.011C537.591 245.011 535.299 244.101 533.647 242.988Z" fill="currentColor"></path><path d="M548.995 227.009V229.234H551.759L551.726 239.449C551.726 243.426 553.074 244.539 556.074 244.539H558.333V242.415H556.58C555.265 242.415 554.355 241.977 554.355 239.685L554.422 229.234H558.636V227.009H554.456L554.49 220.975H551.793L551.759 227.009H548.995Z" fill="currentColor"></path><path fill-rule="evenodd" clip-rule="evenodd" d="M560.93 235.842C560.93 230.279 564.504 226.605 569.796 226.605C575.123 226.605 578.73 230.178 578.73 235.74C578.73 241.404 575.257 245.011 569.796 245.011C564.436 245.011 560.93 241.37 560.93 235.842ZM563.796 235.842C563.796 240.055 566.56 242.685 569.796 242.685C573.201 242.685 575.864 240.089 575.864 235.842C575.864 231.358 573.235 228.931 569.796 228.931C566.56 228.931 563.796 231.358 563.796 235.842Z" fill="currentColor"></path><path d="M582.32 227.009V244.539H585.051V233.414C585.051 230.819 588.22 229.167 590.276 229.167C593.141 229.167 595.232 230.684 595.232 233.583V244.539H597.962V233.347C597.962 228.695 595.198 226.74 591.22 226.74C588.894 226.74 586.467 227.65 585.388 230.077H584.916V227.009H582.32Z" fill="currentColor"></path><path d="M605.231 244.539H602.467V227.009H605.231V244.539Z" fill="currentColor"></path><path d="M602.467 222.728V219.121H605.231V222.728H602.467Z" fill="currentColor"></path><path fill-rule="evenodd" clip-rule="evenodd" d="M615.808 233.752C611.662 234.729 608.931 236.111 608.931 239.718C608.931 242.752 611.527 245.011 614.999 245.011C617.359 245.011 619.28 244.269 620.763 242.449H621.202V244.539H623.966C623.966 242.605 623.974 240.847 623.983 239.085L623.983 239.061C623.991 237.3 624 235.534 624 233.583C624 229.335 621.168 226.639 616.55 226.639C613.718 226.639 611.729 227.65 610.212 228.897V231.358H610.718C612.403 229.875 613.853 229.066 616.482 229.066C618.876 229.066 620.595 230.482 621.067 232.471L620.797 232.942C619.584 233.111 616.988 233.516 615.808 233.752ZM621.235 235.37L621.202 239.044C621.202 241.438 617.999 242.584 616.145 242.584C613.549 242.584 611.763 241.606 611.763 239.685C611.763 237.763 613.212 236.785 616.684 236.145C617.204 236.03 618.129 235.881 619.103 235.725C619.836 235.608 620.598 235.485 621.235 235.37Z" fill="currentColor"></path><path d="M163.285 132.263C161.471 130.449 158.529 130.449 156.715 132.263L149.361 139.617C147.546 141.432 147.546 144.373 149.361 146.188L156.715 153.542C158.529 155.356 161.471 155.356 163.285 153.542L170.639 146.188C172.454 144.373 172.454 141.432 170.639 139.617L163.285 132.263Z" fill="currentColor"></path><path d="M192.715 97.3608C194.529 95.5464 197.471 95.5464 199.285 97.3608L206.639 104.715C208.454 106.529 208.454 109.471 206.639 111.285L199.285 118.639C197.471 120.454 194.529 120.454 192.715 118.639L185.361 111.285C183.546 109.471 183.546 106.529 185.361 104.715L192.715 97.3608Z" fill="currentColor"></path><path d="M235.285 133.361C233.471 131.546 230.529 131.546 228.715 133.361L221.361 140.715C219.546 142.529 219.546 145.471 221.361 147.285L228.715 154.639C230.529 156.454 233.471 156.454 235.285 154.639L242.639 147.285C244.454 145.471 244.454 142.529 242.639 140.715L235.285 133.361Z" fill="currentColor"></path><path d="M199.285 169.361C197.471 167.546 194.529 167.546 192.715 169.361L185.361 176.715C183.546 178.529 183.546 181.471 185.361 183.285L192.715 190.639C194.529 192.454 197.471 192.454 199.285 190.639L206.639 183.285C208.454 181.471 208.454 178.529 206.639 176.715L199.285 169.361Z" fill="currentColor"></path><path fill-rule="evenodd" clip-rule="evenodd" d="M306 64.0008C317.329 55.4799 311.24 36 294.609 36H195.649C191.247 36 187.025 37.7387 183.913 40.8337L100.861 123.412C94.404 129.833 94.3761 140.234 100.799 146.689L116 164L110.052 169.914C103.653 176.277 103.559 186.564 109.842 193.041L145.599 230.203C151.954 236.754 162.445 236.952 169.046 230.645L176 224L201.935 247.209C208.423 253.614 218.9 253.595 225.365 247.167L307.139 171.339C313.62 164.894 313.62 154.445 307.139 148L264 106L306 64.0008ZM163.281 172C165.887 172 168 174.113 168 176.719V187.281C168 189.887 165.887 192 163.281 192H152.719C150.113 192 148 189.887 148 187.281V176.719C148 174.113 150.113 172 152.719 172H163.281ZM168 100.719C168 98.1126 165.887 96 163.281 96H152.719C150.113 96 148 98.1126 148 100.719V111.281C148 113.887 150.113 116 152.719 116H163.281C165.887 116 168 113.887 168 111.281V100.719ZM239.281 96C241.887 96 244 98.1126 244 100.719V111.281C244 113.887 241.887 116 239.281 116H228.719C226.113 116 224 113.887 224 111.281V100.719C224 98.1126 226.113 96 228.719 96H239.281ZM244 176.719C244 174.113 241.887 172 239.281 172H228.719C226.113 172 224 174.113 224 176.719V187.281C224 189.887 226.113 192 228.719 192H239.281C241.887 192 244 189.887 244 187.281V176.719ZM129.198 157.144L139.604 146.856C141.19 145.288 141.19 142.712 139.604 141.144L129.198 130.856C126.661 128.348 128.422 124 131.975 124H167.848C168.887 124 169.884 124.411 170.625 125.144L186.81 141.144C188.397 142.712 188.397 145.288 186.81 146.856L170.625 162.856C169.884 163.589 168.887 164 167.848 164H131.975C128.422 164 126.661 159.652 129.198 157.144ZM193.144 87.6041L182.856 77.1978C180.348 74.6606 176 76.4218 176 79.9749V115.848C176 116.887 176.411 117.884 177.144 118.625L193.144 134.81C194.712 136.397 197.288 136.397 198.856 134.81L214.856 118.625C215.589 117.884 216 116.887 216 115.848V79.9749C216 76.4218 211.652 74.6606 209.144 77.1978L198.856 87.6041C197.288 89.1905 194.712 89.1905 193.144 87.6041ZM262.82 130.77L252.265 141.23C250.703 142.778 250.703 145.222 252.265 146.77L262.82 157.23C265.386 159.772 263.492 164 259.787 164H224.351C223.206 164 222.111 163.556 221.318 162.77L205.172 146.77C203.609 145.222 203.609 142.778 205.172 141.23L221.318 125.23C222.111 124.444 223.206 124 224.351 124H259.787C263.492 124 265.386 128.228 262.82 130.77ZM198.77 200.265L209.23 210.82C211.772 213.386 216 211.492 216 207.787V172.351C216 171.206 215.556 170.111 214.77 169.318L198.77 153.172C197.222 151.61 194.778 151.61 193.23 153.172L177.23 169.318C176.444 170.111 176 171.206 176 172.351V207.787C176 211.492 180.228 213.386 182.77 210.82L193.23 200.265C194.778 198.703 197.222 198.703 198.77 200.265Z" fill="currentColor"></path><path d="M57.4297 94.7215C61.0584 91.0928 66.9416 91.0928 70.5703 94.7215L85.2785 109.43C88.9072 113.058 88.9072 118.942 85.2785 122.57L70.5703 137.278C66.9416 140.907 61.0584 140.907 57.4297 137.278L42.7215 122.57C39.0928 118.942 39.0928 113.058 42.7215 109.43L57.4297 94.7215Z" fill="currentColor"></path><path fill-rule="evenodd" clip-rule="evenodd" d="M55.2396 151.629C60.0778 146.79 67.9222 146.79 72.7604 151.629L92.3713 171.24C97.2096 176.078 97.2096 183.922 92.3713 188.76L79.8069 201.325C79.7523 201.383 79.6967 201.44 79.64 201.497L59.483 221.654C56.3588 224.778 51.2935 224.778 48.1693 221.654L47.8912 221.376C44.767 218.251 44.767 213.186 47.8912 210.062L52.4107 205.542L35.6287 188.76C30.7904 183.922 30.7904 176.078 35.6287 171.24L55.2396 151.629ZM60.7148 169.361C62.5292 167.546 65.4708 167.546 67.2852 169.361L74.6392 176.715C76.4536 178.529 76.4536 181.471 74.6392 183.285L67.2852 190.639C65.4708 192.454 62.5292 192.454 60.7148 190.639L53.3608 183.285C51.5464 181.471 51.5464 178.529 53.3608 176.715L60.7148 169.361Z" fill="currentColor"></path></svg> 